<svg xmlns="http://www.w3.org/2000/svg" viewBox="0 0 64 64">
  <title>Fleetsurf</title>
  <rect width="64" height="64" rx="14" fill="#0a1628"/>
  <path d="M0 43c9-6 18-6 28 0 12 7 22 7 36-1v22H0z" fill="#0f8f8f"/>
  <path d="M0 49c9-5 19-5 30 1 11 6 22 6 34-2v16H0z" fill="#19c2c2"/>
  <path d="M18 33c0-11 8-19 19-19 10 0 17 7 17 17 0 11-8 19-19 19-10 0-17-7-17-17z" fill="#19c2c2"/>
  <path d="M26 39c4 5 13 7 19 1-2 8-8 12-16 9-5-2-7-5-7-9 1-1 2-1 4-1z" fill="#bdfcfc" opacity=".95"/>
  <path d="M51 29l11 4-11 5z" fill="#ff7a59"/>
  <circle cx="40" cy="27" r="6" fill="#eaf6f6"/>
  <circle cx="43" cy="26" r="3" fill="#0a1628"/>
  <circle cx="44" cy="25" r="1" fill="#eaf6f6"/>
  <path d="M32 14V6M41 16l5-7M24 17l-6-6" fill="none" stroke="#ff7a59" stroke-width="5" stroke-linecap="round"/>
  <path d="M15 49c8 4 18 4 28-1" fill="none" stroke="#bdfcfc" stroke-width="3" stroke-linecap="round" opacity=".55"/>
</svg>
