<svg xmlns="http://www.w3.org/2000/svg" viewBox="0 0 64 64" role="img" aria-labelledby="title desc">
  <title id="title">Fleetsurf</title>
  <desc id="desc">A teal wave and white Fleetsurf monogram on a navy square.</desc>
  <defs>
    <linearGradient id="bg" x1="8" y1="5" x2="56" y2="60" gradientUnits="userSpaceOnUse">
      <stop stop-color="#102744"/>
      <stop offset=".56" stop-color="#0a1628"/>
      <stop offset="1" stop-color="#05080f"/>
    </linearGradient>
    <linearGradient id="wave" x1="0" y1="40" x2="64" y2="58" gradientUnits="userSpaceOnUse">
      <stop stop-color="#0f8f8f"/>
      <stop offset="1" stop-color="#19c2c2"/>
    </linearGradient>
  </defs>
  <rect width="64" height="64" rx="15" fill="url(#bg)"/>
  <path d="M0 46c9-5 18-5 28 0 12 6 23 6 36-2v20H0z" fill="#0f8f8f"/>
  <path d="M0 52c9-4 20-4 32 1 11 5 22 5 32-2v13H0z" fill="url(#wave)"/>
  <path d="M31 17c0-5 4-9 10-9h12v9H42c-2 0-4 1-4 4v4h14v10H38v22H26V35H15V25h11v-8z" fill="#eaf6f6"/>
  <path d="M39 25h13v10H39z" fill="#19c2c2"/>
  <path d="M8 50c9-3 18-2 27 2" fill="none" stroke="#bdfcfc" stroke-width="3" stroke-linecap="round" opacity=".5"/>
</svg>
